<svg xmlns="http://www.w3.org/2000/svg" viewBox="0 0 320 320"><defs><style>.a{fill:#000082;}.b{isolation:isolate;font-size:40px;fill:#fbfbfb;font-family:Arial-BoldMT, Arial;font-weight:700;}.c{fill:gold;}.d{fill:#6495ed;}</style></defs><title>Layer 1</title><rect class="a" width="320" height="320"/><text class="b" transform="translate(12 167.66)">Math Challenge</text><path class="c" d="M17,180.66H153a3,3,0,0,1,3,3h0a3,3,0,0,1-3,3H17a3,3,0,0,1-3-3h0A3,3,0,0,1,17,180.66Z"/><path class="d" d="M168,180.66H302a3,3,0,0,1,3,3h0a3,3,0,0,1-3,3H168a3,3,0,0,1-3-3h0A3,3,0,0,1,168,180.66Z"/></svg>